<?xml version="1.0" standalone="no"?>
<!DOCTYPE svg PUBLIC "-//W3C//DTD SVG 20010904//EN"
 "http://www.w3.org/TR/2001/REC-SVG-20010904/DTD/svg10.dtd">
<svg version="1.0" xmlns="http://www.w3.org/2000/svg"
 width="1280.000000pt" height="1262.000000pt" viewBox="0 0 1280.000000 1262.000000"
 preserveAspectRatio="xMidYMid meet">
<metadata>
Created by potrace 1.15, written by Peter Selinger 2001-2017
</metadata>
<g transform="translate(0.000000,1262.000000) scale(0.100000,-0.100000)"
fill="#FFFFFF" stroke="none">
<path d="M6442 12438 l3 -183 33 -3 32 -3 0 115 c0 64 3 116 8 116 4 -1 38
-52 76 -115 l68 -115 39 0 39 0 0 185 0 185 -35 0 -34 0 -3 -122 -3 -122 -73
122 -73 122 -40 0 -40 0 3 -182z"/>
<path d="M6974 11957 c-35 -31 -37 -77 -4 -112 48 -51 130 -16 130 55 0 70
-72 103 -126 57z m74 -29 c28 -28 1 -75 -38 -63 -33 11 -21 75 15 75 6 0 16
-5 23 -12z"/>
<path d="M6128 11956 c-28 -21 -50 -69 -35 -78 22 -14 46 -8 71 17 22 22 29
24 47 15 30 -16 22 -61 -13 -78 -19 -9 -28 -21 -28 -38 0 -20 5 -24 30 -24 38
0 59 -36 44 -78 -8 -22 -15 -27 -44 -27 -27 0 -37 5 -45 23 -10 23 -39 29 -64
13 -19 -12 -6 -45 32 -77 27 -23 38 -26 86 -22 45 4 59 10 83 37 40 45 39 102
-2 141 -27 25 -28 29 -14 41 42 35 37 102 -12 134 -28 18 -112 19 -136 1z"/>
<path d="M6431 11954 c-36 -26 -61 -90 -61 -163 0 -128 41 -191 127 -191 38 0
50 5 79 34 30 30 34 40 34 89 0 47 -4 59 -29 86 -23 25 -37 31 -69 31 -23 0
-44 -4 -47 -10 -13 -22 -24 -8 -19 23 6 30 36 67 55 67 5 0 17 -9 26 -20 16
-18 83 -30 83 -15 0 17 -33 66 -49 75 -30 15 -104 12 -130 -6z m99 -179 c16
-20 17 -80 1 -99 -18 -22 -58 -20 -71 3 -24 46 -5 111 34 111 13 0 29 -7 36
-15z"/>
<path d="M6711 11954 c-37 -26 -51 -74 -51 -171 0 -133 33 -182 121 -183 76 0
111 59 111 185 0 88 -15 138 -49 165 -32 25 -99 27 -132 4z m100 -71 c12 -32
12 -165 -1 -197 -7 -19 -17 -26 -35 -26 -36 0 -47 37 -43 143 2 72 6 91 21
102 24 17 46 9 58 -22z"/>
<path d="M8509 11837 c-46 -109 -47 -126 -13 -127 6 0 25 32 41 72 l30 71 12
-69 c19 -116 22 -123 43 -130 11 -3 23 -2 27 3 4 4 27 55 50 112 41 99 42 105
25 118 -22 16 -25 13 -54 -62 -13 -33 -26 -64 -30 -68 -4 -4 -12 32 -20 80 -7
48 -17 94 -22 101 -26 31 -43 11 -89 -101z"/>
<path d="M4760 11880 c-12 -7 -12 -16 4 -62 9 -29 20 -60 23 -68 4 -8 -21 9
-55 38 -50 44 -65 52 -86 46 -30 -7 -31 -14 -11 -80 8 -27 15 -53 15 -59 0 -5
-25 15 -55 45 -45 45 -57 52 -75 44 -19 -8 -14 -15 58 -87 69 -69 82 -77 105
-72 32 8 32 12 8 93 -11 34 -17 62 -14 62 3 0 32 -24 64 -54 43 -38 66 -52 80
-49 10 3 21 8 24 12 6 11 -49 194 -60 198 -6 1 -17 -1 -25 -7z"/>
<path d="M8747 11742 c-38 -90 -45 -117 -35 -123 25 -17 34 -8 58 57 14 36 28
68 32 70 3 2 12 -37 19 -87 11 -79 16 -93 36 -102 13 -6 25 -8 27 -6 2 2 24
54 49 114 42 100 44 111 30 123 -9 6 -19 12 -23 12 -3 0 -18 -34 -34 -75 -16
-42 -30 -74 -32 -73 -1 2 -9 43 -18 91 -17 99 -19 103 -44 109 -15 4 -26 -15
-65 -110z"/>
<path d="M4435 11750 c-3 -5 7 -29 23 -52 16 -24 32 -49 36 -56 4 -7 -31 6
-77 30 -67 33 -90 40 -107 32 -20 -9 -19 -12 30 -89 55 -88 73 -106 91 -88 8
8 2 24 -20 59 -16 27 -28 50 -26 52 1 2 35 -13 75 -33 51 -26 80 -35 97 -30
29 7 31 0 -32 103 -47 77 -74 98 -90 72z"/>
<path d="M9017 11727 c-59 -141 -80 -197 -76 -201 2 -2 41 -19 87 -39 79 -34
82 -35 92 -16 10 17 5 22 -35 39 -26 11 -50 20 -53 20 -24 1 -32 18 -21 48 6
18 13 32 15 32 2 0 28 -11 59 -24 53 -24 55 -24 65 -6 11 20 5 24 -88 61 -20
8 -21 12 -11 31 6 13 13 24 14 26 1 2 28 -9 60 -23 58 -25 75 -25 75 1 0 15
-16 23 -120 64 l-50 20 -13 -33z"/>
<path d="M4217 11668 c-16 -12 -14 -17 18 -65 19 -29 35 -55 35 -58 0 -2 -38
14 -84 37 -66 32 -89 40 -105 32 -19 -9 -17 -14 36 -96 31 -49 62 -88 69 -88
26 0 25 22 -5 70 -17 28 -31 52 -31 54 0 2 36 -14 79 -35 49 -23 87 -36 100
-32 12 3 21 8 21 11 0 5 -110 182 -114 182 -1 0 -10 -6 -19 -12z"/>
<path d="M4998 11579 c-26 -15 -22 -46 7 -65 48 -31 106 16 70 56 -20 22 -50
25 -77 9z m51 -18 c18 -11 5 -31 -20 -31 -18 0 -26 20 -12 33 8 9 15 9 32 -2z"/>
<path d="M4875 11528 c-27 -11 -51 -21 -53 -23 -7 -6 29 -105 37 -105 5 0 20
9 34 20 33 26 53 25 73 -5 21 -32 9 -48 -31 -42 -17 3 -38 1 -46 -4 -24 -16
19 -41 60 -35 68 11 94 71 48 114 -25 23 -90 31 -102 12 -4 -6 -11 -8 -16 -5
-20 13 -7 32 31 46 35 12 39 16 28 30 -12 15 -18 14 -63 -3z"/>
<path d="M8332 11528 c-28 -28 3 -58 37 -36 26 16 53 3 49 -24 -2 -17 -21 -32
-74 -58 -73 -36 -104 -57 -104 -70 0 -4 35 -22 77 -39 59 -24 79 -28 85 -19
14 22 9 29 -32 45 -22 9 -40 19 -40 23 0 4 18 13 41 20 54 18 99 61 99 94 0
41 -41 76 -88 76 -21 0 -43 -5 -50 -12z"/>
<path d="M8519 11450 c-24 -20 -24 -20 -5 -35 17 -13 21 -13 36 0 22 20 50 9
50 -20 0 -27 -10 -35 -70 -60 -54 -22 -112 -63 -106 -74 9 -13 145 -63 156
-56 21 13 8 33 -32 50 l-43 17 51 23 c83 37 112 83 84 135 -9 17 -58 40 -85
40 -7 0 -23 -9 -36 -20z"/>
<path d="M4598 11421 c-63 -24 -81 -42 -58 -56 5 -3 26 1 46 10 20 8 40 15 45
15 5 0 9 -22 9 -49 0 -63 17 -111 39 -111 28 0 31 10 15 42 -11 21 -15 51 -12
94 1 35 -2 67 -7 72 -6 5 -38 -2 -77 -17z"/>
<path d="M4420 11353 c-26 -10 -50 -36 -50 -55 0 -10 4 -18 9 -18 20 0 41 13
41 25 0 18 31 28 44 15 7 -7 7 -16 -2 -31 -16 -25 -6 -42 19 -34 24 8 49 -11
49 -35 0 -23 -18 -30 -47 -19 -24 9 -53 3 -53 -11 0 -4 13 -13 30 -20 52 -22
120 10 120 56 0 28 -25 54 -51 54 -15 0 -18 5 -13 24 9 39 -46 67 -96 49z"/>
<path d="M8787 11305 c-36 -53 -36 -55 -17 -65 11 -6 24 -9 28 -7 4 3 17 1 30
-4 27 -10 29 -39 4 -70 -21 -25 -48 -21 -59 8 -13 36 -53 45 -53 12 0 -27 52
-79 80 -79 36 0 77 28 89 61 14 42 -8 96 -43 105 -21 5 -24 9 -16 25 10 17 11
17 53 -1 39 -18 42 -18 49 -2 4 9 7 20 7 23 1 5 -102 49 -113 49 -2 0 -20 -25
-39 -55z"/>
<path d="M4806 11322 c-7 -11 6 -27 26 -35 11 -4 15 -12 12 -22 -7 -17 11 -21
21 -4 11 17 -16 69 -36 69 -10 0 -20 -4 -23 -8z"/>
<path d="M4222 11274 c-26 -18 -32 -70 -6 -60 9 3 18 6 20 6 2 0 4 6 4 14 0
22 32 29 49 11 15 -15 15 -17 0 -28 -24 -18 -12 -37 20 -31 31 7 57 -16 47
-42 -5 -12 -15 -15 -40 -11 -60 10 -76 -25 -18 -38 38 -8 77 8 98 40 15 23 15
27 0 50 -10 15 -26 25 -41 25 -22 0 -24 3 -19 29 5 23 2 32 -14 40 -29 16 -74
14 -100 -5z"/>
<path d="M8976 11277 c-38 -28 -13 -97 35 -97 25 0 49 27 49 55 0 46 -47 69
-84 42z m57 -29 c7 -21 -4 -38 -23 -38 -10 0 -20 6 -23 13 -7 20 4 37 23 37
10 0 20 -6 23 -12z"/>
<path d="M6265 11249 c-801 -53 -1587 -323 -2263 -776 -1097 -736 -1828 -1914
-1997 -3221 -37 -290 -48 -695 -25 -962 87 -1008 471 -1918 1131 -2675 94
-108 341 -354 454 -451 284 -246 658 -490 1010 -660 933 -448 1997 -570 3007
-343 1685 378 3018 1671 3448 3344 167 650 191 1301 74 1960 -79 442 -198 801
-404 1220 -177 360 -340 612 -597 925 -107 131 -435 459 -568 569 -549 453
-1142 759 -1810 931 -484 124 -972 171 -1460 139z m292 -51 c-3 -13 -38 -211
-78 -440 l-73 -417 -50 -5 c-214 -20 -284 -28 -374 -43 -56 -9 -104 -14 -106
-12 -2 2 -41 189 -85 414 -45 226 -83 417 -85 426 -3 14 12 20 83 33 204 37
462 62 655 65 118 1 118 1 113 -21z m503 -3 c114 -13 380 -53 387 -59 2 -2
-168 -859 -171 -862 0 -1 -46 6 -101 16 -55 10 -154 23 -220 29 -66 7 -144 14
-172 17 -29 3 -53 10 -53 14 0 5 -31 188 -70 407 -38 219 -70 413 -70 432 l0
34 168 -6 c92 -4 228 -14 302 -22z m-1330 -382 c34 -175 72 -369 85 -431 16
-80 19 -114 11 -117 -6 -1 -72 -17 -146 -35 -138 -33 -357 -102 -443 -139 -27
-12 -50 -21 -53 -21 -5 0 -1 -10 -185 437 -82 199 -149 366 -149 371 0 10 192
83 355 135 109 34 411 112 451 116 7 1 35 -118 74 -316z m1866 292 c241 -54
712 -209 707 -232 -4 -19 -326 -789 -333 -796 -4 -4 -54 10 -111 31 -152 57
-216 77 -389 121 -85 22 -154 43 -154 48 3 18 169 853 170 853 1 0 50 -11 110
-25z m-2618 -642 c89 -216 162 -396 162 -400 0 -4 -89 -52 -198 -105 -108 -53
-243 -126 -300 -162 l-103 -65 -244 366 -244 367 77 49 c214 137 666 368 683
349 3 -4 79 -183 167 -399z m3569 307 c200 -97 316 -161 460 -252 l91 -59
-235 -352 c-130 -194 -241 -357 -247 -364 -8 -9 -36 4 -116 53 -58 36 -190
108 -295 160 -104 52 -191 99 -193 103 -2 6 97 249 313 769 8 17 19 32 26 32
6 0 95 -40 196 -90z m-4280 -695 l242 -364 -67 -47 c-142 -100 -287 -220 -400
-328 l-62 -61 -313 313 -312 313 65 61 c96 88 256 227 330 285 82 64 262 193
270 193 3 0 114 -164 247 -365z m5113 181 c98 -76 256 -212 338 -290 l73 -70
-308 -308 c-169 -169 -311 -308 -316 -308 -4 0 -48 38 -98 85 -102 96 -238
206 -349 285 -41 29 -76 54 -78 56 -2 1 107 167 243 368 l246 365 92 -66 c51
-36 121 -89 157 -117z m-2985 22 c-3 -13 -36 -203 -75 -423 -38 -220 -72 -412
-75 -426 -5 -24 -12 -26 -96 -38 -50 -7 -93 -11 -95 -8 -3 2 -41 186 -84 408
-44 222 -82 414 -85 425 -4 20 2 23 83 37 114 20 290 41 395 45 34 2 37 0 32
-20z m639 -4 c59 -8 137 -19 173 -25 59 -10 64 -13 59 -33 -3 -11 -41 -203
-86 -425 -44 -222 -82 -407 -84 -410 -3 -4 -48 0 -101 9 -81 13 -97 18 -100
35 -3 11 -36 202 -75 425 -39 223 -73 416 -76 429 l-5 23 93 -7 c51 -4 142
-13 202 -21z m-1105 -470 c47 -239 80 -429 75 -433 -5 -5 -43 -16 -84 -26 -88
-20 -263 -74 -338 -104 l-53 -21 -8 23 c-5 12 -79 192 -165 400 -86 208 -156
382 -156 386 0 24 543 196 630 200 13 1 32 -83 99 -425z m1468 406 c192 -45
553 -164 553 -182 0 -5 -75 -189 -166 -409 -138 -330 -170 -399 -183 -393 -70
29 -237 83 -341 110 -69 18 -124 36 -124 41 4 27 169 853 171 853 1 0 42 -9
90 -20z m-2068 -596 c88 -215 161 -395 161 -400 0 -5 -47 -31 -105 -58 -58
-27 -158 -80 -222 -119 -65 -38 -119 -65 -121 -59 -1 5 -111 170 -242 366
l-240 356 68 43 c172 111 518 285 533 269 4 -4 79 -183 168 -398z m2891 296
c97 -48 193 -103 297 -168 l72 -45 -236 -351 c-129 -193 -241 -357 -247 -364
-10 -10 -29 -2 -97 39 -70 43 -311 168 -347 180 -6 2 56 166 149 389 89 212
165 395 170 407 l8 22 73 -33 c40 -18 111 -52 158 -76z m-4576 -349 l309 -310
-80 -85 c-87 -92 -242 -282 -312 -383 l-43 -62 -364 242 c-200 133 -364 245
-364 249 0 11 135 196 225 308 84 105 304 350 314 350 3 0 145 -139 315 -309z
m6247 232 c140 -146 392 -460 452 -562 l18 -30 -361 -241 c-198 -132 -363
-240 -367 -240 -5 0 -29 30 -54 68 -70 101 -196 256 -293 360 -47 50 -86 95
-86 98 0 8 612 613 621 614 3 0 35 -30 70 -67z m-5117 -478 l244 -366 -77 -56
c-42 -31 -108 -83 -147 -115 l-71 -58 -224 130 -225 130 -134 136 -135 136 80
75 c102 96 420 350 442 353 2 0 112 -164 247 -365z m3970 272 c120 -90 297
-239 358 -304 l38 -39 -128 -126 c-126 -126 -128 -127 -360 -262 l-233 -135
-104 84 c-57 46 -122 96 -145 111 -22 15 -39 30 -38 33 16 33 484 721 490 721
5 0 60 -38 122 -83z m-2549 -444 c-20 -114 -39 -217 -42 -228 -4 -12 -24 69
-50 199 -23 121 -41 221 -39 223 8 9 161 28 164 21 2 -4 -13 -101 -33 -215z
m891 194 c2 -2 -18 -108 -44 -236 -25 -128 -47 -230 -49 -225 -5 18 -83 463
-83 477 0 12 12 12 87 0 48 -7 88 -15 89 -16z m-1008 -282 l53 -270 -31 -174
c-17 -96 -32 -175 -33 -175 -1 -1 -43 -15 -94 -32 l-91 -31 -16 36 c-44 102
-316 765 -316 772 0 20 412 151 460 146 11 -2 28 -70 68 -272z m1173 245 c106
-27 334 -102 346 -113 2 -3 -66 -176 -153 -384 -86 -208 -162 -390 -168 -406
-6 -15 -15 -25 -21 -23 -5 3 -48 17 -95 32 -47 16 -86 29 -87 29 -2 1 -16 73
-32 161 l-30 159 57 288 c31 158 59 287 62 287 3 0 57 -13 121 -30z m-3155
-192 c105 -107 117 -124 229 -318 65 -113 131 -226 146 -252 l27 -46 -44 -52
c-25 -29 -74 -92 -111 -141 l-65 -88 -364 242 c-200 133 -364 245 -364 249 0
10 185 254 253 333 73 84 169 185 177 185 3 0 55 -51 116 -112z m5318 -164
c47 -59 109 -140 136 -180 l49 -71 -365 -243 c-212 -142 -368 -240 -373 -234
-4 5 -28 36 -51 69 -24 33 -71 94 -105 135 l-62 75 139 240 c138 237 141 241
261 363 l122 123 81 -84 c45 -47 120 -133 168 -193z m-6275 -14 c193 -129 350
-238 351 -242 0 -4 -21 -40 -46 -79 -68 -107 -184 -324 -229 -427 -21 -51 -43
-92 -47 -92 -5 0 -156 61 -336 136 -180 75 -360 149 -399 166 -40 16 -73 32
-73 34 0 2 29 67 64 144 114 249 328 616 352 602 7 -4 170 -113 363 -242z
m2439 79 c35 -85 110 -265 166 -402 l103 -247 -110 -56 c-61 -31 -120 -62
-130 -69 -42 -29 -67 0 -307 360 l-229 344 67 42 c86 55 353 190 366 186 6 -2
39 -73 74 -158z m2224 83 c185 -94 271 -149 264 -167 -2 -7 -103 -161 -224
-342 -261 -391 -252 -383 -352 -322 -36 21 -93 51 -128 66 -46 20 -61 32 -57
43 37 99 332 800 337 800 3 0 75 -35 160 -78z m2644 -19 c91 -144 157 -265
243 -446 106 -222 103 -214 83 -220 -9 -3 -192 -78 -407 -166 -214 -89 -391
-157 -393 -152 -14 43 -204 407 -256 491 l-64 104 361 243 c199 133 364 242
367 242 3 1 33 -43 66 -96z m-5198 -469 l204 -306 -54 30 c-29 17 -181 105
-338 196 -156 91 -289 167 -295 169 -5 2 8 19 29 38 62 55 230 179 241 179 5
0 101 -138 213 -306z m2959 239 c140 -106 176 -140 161 -149 -54 -35 -654
-381 -656 -379 -5 5 390 595 398 595 4 0 48 -30 97 -67z m-4305 -424 l356
-238 -65 -108 c-36 -59 -90 -160 -121 -224 l-55 -116 -76 32 c-42 18 -220 92
-396 165 -176 73 -324 136 -328 140 -24 22 290 609 317 593 6 -4 172 -114 368
-244z m5752 193 c103 -168 295 -537 284 -547 -3 -3 -313 -132 -642 -266 -93
-39 -170 -68 -171 -67 -1 2 -29 59 -62 128 -33 69 -85 167 -117 219 -31 52
-53 97 -49 101 15 14 718 480 723 480 3 0 18 -22 34 -48z m-891 -325 c37 -49
67 -94 67 -98 0 -5 -136 -99 -302 -210 -256 -171 -298 -196 -282 -168 11 19
100 172 198 342 l179 307 36 -42 c20 -23 66 -82 104 -131z m-4052 -160 c103
-177 185 -323 184 -325 -2 -2 -134 85 -294 193 l-291 196 41 57 c57 81 158
202 167 202 4 -1 91 -146 193 -323z m-1971 98 c206 -86 385 -161 396 -165 22
-9 21 -10 -22 -125 -48 -124 -103 -308 -133 -443 -11 -46 -22 -86 -25 -90 -5
-4 -808 149 -853 163 -8 3 -9 13 -2 37 5 18 24 97 44 175 59 241 188 618 209
609 6 -2 180 -75 386 -161z m3320 158 c0 -31 -55 -302 -60 -296 -15 18 -101
245 -95 251 8 8 125 50 143 51 6 1 12 -2 12 -6z m1114 -18 c38 -14 71 -27 73
-29 4 -3 -97 -247 -107 -259 -3 -4 -17 52 -29 125 -13 73 -25 145 -28 161 -7
34 2 34 91 2z m3674 -105 c78 -206 184 -573 194 -670 l3 -32 -420 -84 c-231
-46 -426 -84 -432 -84 -7 0 -13 8 -13 18 0 52 -98 389 -162 557 -16 44 -26 81
-21 83 4 1 186 76 403 166 217 90 398 161 402 158 3 -4 24 -54 46 -112z
m-4919 -100 c36 -88 62 -162 59 -165 -7 -7 -358 195 -358 206 0 8 209 118 225
119 6 0 39 -72 74 -160z m1471 107 c57 -29 105 -57 107 -63 3 -10 -346 -218
-353 -211 -6 6 129 327 136 327 4 0 54 -24 110 -53z m-2429 -590 l26 -42 -66
-127 -67 -126 -402 166 c-254 106 -402 172 -402 181 0 18 145 298 192 373 l37
57 328 -220 c270 -181 332 -226 354 -262z m3942 387 c54 -88 182 -343 175
-349 -5 -5 -764 -319 -793 -329 -18 -5 -26 5 -57 72 -20 42 -49 100 -66 127
l-29 50 23 38 c19 28 103 90 352 256 180 121 331 218 337 217 5 -1 32 -38 58
-82z m-5308 -198 c328 -137 390 -166 388 -182 0 -10 -21 -77 -46 -149 -24 -71
-54 -172 -67 -222 -14 -61 -27 -93 -36 -93 -23 0 -818 160 -835 168 -14 6 -12
22 18 142 32 129 113 382 147 463 9 20 22 37 29 36 6 0 188 -73 402 -163z
m6398 33 c65 -178 155 -505 143 -517 -3 -3 -844 -172 -856 -172 -3 0 -14 37
-24 83 -20 91 -73 264 -105 346 -12 29 -20 55 -19 56 5 3 802 333 809 334 3 1
27 -58 52 -130z m-5545 -388 c211 -88 386 -162 388 -164 4 -4 -53 -184 -62
-196 -2 -2 -73 -16 -158 -31 l-156 -28 -272 54 c-150 30 -280 57 -290 60 -15
4 -13 16 13 117 16 62 48 167 71 235 38 110 45 123 63 118 11 -3 193 -77 403
-165z m4690 57 c38 -110 107 -357 100 -363 -2 -2 -130 -29 -285 -60 l-281 -55
-162 29 c-88 16 -162 30 -163 32 -6 11 -66 193 -64 194 1 1 164 68 362 149
198 82 378 156 400 166 22 10 43 19 46 19 4 1 25 -50 47 -111z m-4051 -106
c40 -70 86 -150 103 -179 l30 -52 -157 65 c-86 35 -158 64 -160 64 -1 0 -3 7
-3 16 0 19 100 214 109 214 3 0 38 -58 78 -128z m3089 17 c30 -61 53 -113 51
-115 -7 -8 -319 -135 -322 -132 -5 5 199 357 207 358 4 0 33 -50 64 -111z
m-5667 -34 c233 -47 426 -87 428 -89 2 -2 -3 -41 -11 -87 -20 -105 -46 -337
-46 -406 0 -29 -4 -53 -10 -53 -5 0 -176 -29 -378 -65 -208 -37 -398 -65 -435
-65 -79 0 -72 -27 -57 220 15 259 64 630 83 630 1 0 193 -38 426 -85z m8541
68 c0 -5 7 -46 15 -93 26 -146 55 -418 62 -587 l6 -163 -40 0 c-39 0 -833 137
-841 145 -2 2 -8 55 -13 117 -8 107 -30 278 -48 374 -5 24 -8 44 -7 44 19 6
836 168 849 169 9 1 17 -2 17 -6z m-7641 -248 c233 -47 425 -86 427 -88 5 -5
-27 -192 -34 -198 -4 -3 -196 -38 -427 -78 -231 -40 -430 -75 -443 -78 -22 -5
-22 -3 -17 48 27 286 54 479 68 479 1 0 193 -38 426 -85z m6750 10 c30 -171
57 -455 44 -455 -4 1 -206 36 -448 79 l-440 77 -15 97 c-9 53 -16 97 -15 98 1
3 824 167 841 168 19 1 23 -7 33 -64z m-5146 2 c70 -30 129 -56 132 -59 3 -2
-67 -17 -156 -32 -88 -15 -162 -26 -165 -24 -6 7 50 168 59 168 1 0 59 -24
130 -53z m3262 -28 c15 -44 25 -83 22 -86 -6 -5 -308 45 -316 53 -2 2 9 9 25
14 16 6 74 30 129 54 55 24 103 44 107 45 3 1 18 -35 33 -80z m-4137 -130
c117 -23 211 -43 210 -44 -8 -8 -489 -87 -494 -83 -6 7 14 157 23 171 3 5 15
6 27 4 11 -3 117 -25 234 -48z m5121 -22 c15 -86 14 -107 -4 -107 -18 0 -408
67 -445 77 -17 4 39 19 180 48 276 58 256 59 269 -18z m-6824 -537 c220 -39
409 -72 420 -75 19 -4 22 -16 33 -147 6 -79 21 -197 31 -263 11 -65 19 -120
18 -120 -6 -4 -844 -166 -853 -165 -11 0 -39 157 -64 355 -10 79 -30 384 -30
458 0 34 2 37 23 32 12 -3 202 -37 422 -75z m8695 -8 c0 -227 -67 -772 -95
-772 -18 0 -845 167 -850 171 -2 3 0 24 6 47 15 67 49 348 49 405 0 29 5 59
10 67 7 11 124 36 407 86 219 40 415 72 436 73 l37 1 0 -78z m-925 -149 c-15
-201 -53 -443 -70 -443 -17 0 -845 167 -849 171 -2 2 4 45 12 96 l15 92 66 11
c82 14 825 147 829 149 2 0 0 -34 -3 -76z m-6831 -9 c237 -42 432 -77 434 -79
3 -3 32 -179 29 -181 -2 -2 -822 -164 -847 -167 -17 -2 -32 66 -54 263 -23
198 -24 240 -7 240 8 0 209 -34 445 -76z m701 -123 c99 -17 191 -34 205 -38
17 -4 -41 -19 -185 -49 -115 -23 -213 -39 -216 -36 -7 7 -29 125 -29 151 0 9
8 11 23 8 12 -3 103 -20 202 -36z m5195 18 c0 -45 -24 -149 -34 -149 -29 0
-428 84 -417 88 14 5 419 80 439 81 6 1 12 -9 12 -20z m-4673 -111 l183 -32
26 -80 c15 -45 29 -86 31 -92 2 -6 -87 -49 -209 -99 -117 -49 -298 -123 -402
-167 -104 -43 -192 -78 -196 -78 -15 0 -128 363 -142 455 -3 18 19 24 252 71
140 29 260 52 265 53 6 1 92 -13 192 -31z m4363 -23 c150 -30 275 -56 276 -58
10 -10 -86 -337 -127 -434 l-17 -41 -324 134 c-453 189 -483 202 -483 211 0 4
13 47 29 94 l29 86 166 30 c91 17 168 31 172 32 3 0 128 -24 279 -54z m-3955
-49 c111 -20 126 -25 105 -34 -117 -48 -233 -92 -235 -90 -3 4 -55 148 -55
153 0 3 12 2 28 -1 15 -3 86 -16 157 -28z m3295 26 c0 -10 -49 -144 -55 -151
-5 -4 -106 35 -215 83 l-45 20 150 27 c83 15 153 27 158 28 4 1 7 -2 7 -7z
m-4426 -150 c15 -64 48 -173 72 -241 24 -69 43 -125 41 -126 -10 -9 -90 -43
-411 -175 -203 -84 -375 -154 -383 -157 -16 -6 -37 41 -97 223 -41 124 -120
415 -113 419 1 1 193 41 427 88 234 46 427 85 430 86 3 0 18 -52 34 -117z
m5835 23 c233 -47 426 -86 427 -88 8 -7 -77 -318 -120 -442 -66 -192 -73 -206
-94 -197 -10 4 -193 79 -406 167 -295 122 -385 164 -382 175 3 8 22 65 44 125
22 61 53 163 68 227 16 65 31 118 34 118 3 0 196 -38 429 -85z m-4491 57 c-1
-4 -48 -85 -103 -180 -89 -155 -101 -171 -113 -155 -17 23 -114 214 -110 217
2 1 68 30 148 63 138 58 186 73 178 55z m2849 -53 c81 -34 151 -65 156 -68 8
-8 -101 -231 -112 -231 -6 0 -199 326 -209 351 -7 16 16 9 165 -52z m-3145
-211 l68 -132 -18 -30 c-12 -22 -120 -100 -347 -253 -182 -122 -335 -222 -342
-222 -6 -1 -31 29 -54 67 -60 94 -190 355 -181 364 6 6 97 44 597 250 93 38
176 74 185 78 8 5 17 9 20 10 3 0 35 -60 72 -132z m-1943 -20 c19 -79 61 -219
94 -313 32 -93 59 -178 60 -188 2 -14 -13 -25 -53 -41 -550 -228 -744 -306
-750 -299 -11 12 -67 162 -112 298 -36 110 -141 506 -135 511 1 1 184 38 407
83 223 44 414 82 425 84 11 3 22 5 25 6 3 0 21 -63 39 -141z m5688 -19 c214
-89 394 -164 401 -168 18 -10 -168 -378 -223 -439 -4 -5 -634 415 -663 442
-13 11 -30 33 -38 48 -13 25 -12 31 15 75 16 26 46 83 66 126 21 42 41 77 46
77 5 0 183 -72 396 -161z m1942 66 c233 -47 426 -86 428 -88 5 -6 -83 -347
-122 -467 -44 -135 -115 -332 -125 -343 -3 -4 -49 10 -101 32 -52 22 -231 96
-399 166 -167 69 -306 128 -308 130 -2 2 19 68 48 146 50 138 120 381 135 467
4 23 10 42 14 42 4 0 197 -38 430 -85z m-6431 -583 c34 -57 62 -107 62 -110 0
-4 -163 -115 -361 -247 l-361 -240 -24 30 c-61 76 -294 519 -294 558 0 7 171
83 403 179 l402 166 56 -117 c31 -64 83 -163 117 -219z m5317 173 c205 -85
385 -159 399 -165 14 -5 26 -15 26 -23 0 -35 -239 -486 -303 -571 -13 -18 -34
-5 -368 219 -195 131 -358 242 -363 246 -5 4 16 49 47 101 30 51 84 150 119
220 34 71 64 128 66 128 2 0 172 -70 377 -155z m-4786 -231 c-105 -181 -193
-331 -196 -334 -2 -3 -12 5 -21 16 -9 12 -42 52 -73 90 -62 78 -123 164 -117
168 20 18 593 394 595 392 2 -2 -83 -151 -188 -332z m4094 -95 c-25 -43 -183
-239 -192 -239 -6 0 -378 633 -390 662 -2 5 132 -81 298 -192 l302 -201 -18
-30z m-2887 60 c-35 -84 -69 -155 -75 -157 -14 -5 -212 99 -209 110 3 8 341
208 346 204 1 -2 -26 -72 -62 -157z m1422 46 c83 -48 152 -91 152 -96 0 -5
-49 -33 -109 -63 l-109 -55 -66 160 c-36 87 -66 162 -66 165 0 4 10 0 23 -8
12 -8 91 -54 175 -103z m-3948 -425 c29 -47 61 -99 72 -117 l19 -32 -360 -240
c-199 -133 -364 -241 -368 -241 -17 0 -188 290 -277 470 -73 147 -131 278
-125 283 2 2 184 78 404 169 l400 165 92 -186 c50 -102 115 -224 143 -271z
m2655 173 l6 -32 -68 23 c-37 13 -75 27 -85 31 -14 6 -11 20 29 113 25 59 50
118 55 132 9 21 14 6 34 -105 13 -71 26 -144 29 -162z m1141 151 c35 -83 48
-127 41 -129 -112 -41 -151 -54 -154 -51 -2 2 9 73 24 159 15 86 29 154 32
152 2 -3 28 -61 57 -131z m3189 -44 c215 -89 392 -164 394 -166 7 -6 -77 -191
-146 -322 -134 -255 -247 -437 -266 -426 -29 18 -703 467 -711 475 -5 4 13 42
41 86 100 157 193 335 257 487 9 23 21 36 28 33 7 -3 189 -78 403 -167z
m-6055 -25 c24 -33 72 -95 108 -138 l64 -77 -132 -228 -131 -227 -132 -132
-132 -133 -48 48 c-108 104 -367 432 -371 467 -1 17 715 499 725 487 3 -4 26
-34 49 -67z m4909 -180 c193 -130 351 -239 351 -242 0 -22 -182 -253 -323
-411 l-101 -113 -127 128 -127 128 -137 237 -137 237 56 66 c31 36 82 100 112
141 34 46 61 73 69 70 7 -2 171 -111 364 -241z m-3524 169 c99 -52 125 -70
120 -83 -3 -9 -78 -190 -167 -404 -149 -358 -163 -387 -182 -381 -59 18 -346
171 -395 211 l-24 19 219 326 c209 311 233 340 300 377 1 1 59 -29 129 -65z
m1880 38 c30 -21 92 -105 258 -352 119 -179 217 -327 217 -330 0 -4 -55 -38
-122 -78 -153 -89 -305 -159 -317 -146 -16 17 -333 796 -326 802 7 7 237 129
245 131 3 0 23 -12 45 -27z m-2363 -366 l-197 -294 -50 36 c-67 47 -215 166
-215 172 1 5 641 378 652 379 3 1 -82 -131 -190 -293z m2810 107 c177 -103
325 -188 328 -191 7 -5 -43 -48 -164 -138 -55 -41 -103 -71 -106 -67 -15 16
-390 583 -386 583 2 0 150 -84 328 -187z m-2062 106 c50 -17 90 -34 90 -38 0
-3 13 -79 29 -168 l29 -162 -54 -273 c-30 -150 -57 -274 -60 -277 -12 -12
-382 96 -451 133 -22 11 -20 16 138 396 89 212 163 393 166 403 7 22 9 22 113
-14z m1448 -367 c90 -218 164 -401 165 -407 1 -22 -452 -159 -470 -142 -3 4
-30 127 -59 274 l-54 268 31 170 c16 93 31 170 33 172 5 6 162 61 176 62 11 0
63 -116 178 -397z m-3867 -10 c67 -97 194 -253 293 -360 47 -52 86 -97 86
-100 0 -4 -138 -146 -308 -315 l-307 -307 -71 72 c-122 125 -275 312 -409 497
-51 72 -64 96 -54 102 8 4 172 114 364 243 193 129 352 235 355 235 3 1 26
-29 51 -67z m1267 -20 c53 -44 116 -91 140 -107 23 -15 42 -30 42 -34 0 -3
-109 -169 -242 -368 l-243 -362 -25 16 c-102 65 -318 240 -433 351 l-69 65
109 108 c105 105 116 113 363 258 140 82 256 150 258 150 1 1 46 -34 100 -77z
m3829 -67 c246 -143 249 -145 366 -262 l117 -119 -112 -101 c-142 -127 -392
-323 -413 -323 -7 0 -485 718 -484 727 0 5 40 37 88 71 49 35 110 83 137 107
27 24 50 44 51 45 1 0 113 -65 250 -145z m1340 -97 l362 -242 -46 -65 c-127
-181 -332 -428 -447 -541 l-56 -55 -309 309 -309 309 96 106 c104 115 211 247
286 354 26 37 51 67 54 67 4 0 170 -109 369 -242z m-3807 -158 c22 -124 40
-228 40 -233 0 -8 -26 -5 -126 14 l-51 10 45 226 c25 125 47 223 49 217 1 -5
21 -110 43 -234z m850 11 c23 -117 38 -217 34 -221 -10 -8 -156 -31 -162 -25
-2 2 12 95 32 207 43 242 47 260 51 256 2 -2 22 -99 45 -217z m-1904 93 c49
-30 149 -85 221 -120 l133 -65 -13 -32 c-117 -282 -321 -773 -322 -775 -13
-17 -531 258 -594 314 -4 3 479 734 484 734 2 0 43 -25 91 -56z m3204 -314
c132 -198 240 -361 240 -363 0 -7 -152 -99 -275 -166 -158 -86 -314 -156 -324
-145 -6 7 -303 722 -326 785 -5 13 27 33 147 92 84 42 180 94 213 116 33 22
66 40 72 40 7 1 121 -161 253 -359z m-2672 66 c56 -20 155 -50 219 -67 64 -16
118 -31 120 -32 1 -2 -36 -192 -82 -422 -47 -231 -85 -424 -85 -428 0 -12 -65
0 -226 44 -123 33 -408 130 -421 142 -2 3 57 153 132 333 75 181 150 362 167
402 35 85 20 83 176 28z m2113 -358 l166 -403 -23 -13 c-13 -6 -103 -39 -201
-71 -202 -67 -410 -119 -422 -105 -9 10 -174 844 -168 850 1 2 57 17 122 34
66 17 170 48 230 69 61 22 115 40 120 40 6 1 85 -180 176 -401z m-3710 265
c105 -96 251 -215 355 -289 38 -26 71 -49 73 -51 5 -3 -480 -733 -487 -733 -7
0 -173 121 -272 199 -119 93 -224 184 -318 275 l-72 71 307 307 c169 170 311
308 314 308 3 0 48 -39 100 -87z m5669 -579 c-109 -112 -352 -314 -531 -441
l-87 -61 -245 367 c-237 356 -244 368 -223 381 63 38 296 223 396 314 l115
104 310 -309 310 -309 -45 -46z m-3567 549 c32 -3 60 -10 63 -14 2 -5 40 -207
83 -450 l78 -442 -98 7 c-111 7 -305 31 -378 47 l-48 10 86 430 86 431 35 -6
c19 -4 61 -9 93 -13z m921 0 c3 -10 41 -202 86 -427 60 -303 78 -411 69 -417
-29 -17 -404 -63 -470 -57 l-35 3 77 439 c43 241 80 441 83 444 6 5 130 28
168 31 9 0 19 -7 22 -16z m-2404 -431 c116 -69 279 -153 383 -198 37 -16 65
-33 63 -39 -2 -5 -73 -174 -156 -375 -84 -201 -158 -379 -165 -397 l-14 -32
-101 44 c-135 60 -243 115 -370 188 -136 77 -280 168 -280 176 0 3 109 169
242 368 l242 363 25 -17 c15 -10 73 -46 131 -81z m4142 -249 c123 -186 232
-350 242 -364 l17 -27 -82 -52 c-168 -108 -402 -232 -583 -311 -49 -21 -91
-37 -93 -35 -7 6 -333 798 -333 807 0 5 6 9 13 9 23 0 350 167 467 239 63 38
118 70 121 71 3 0 107 -152 231 -337z m-3577 -24 c132 -51 252 -89 414 -130
85 -21 155 -40 157 -42 4 -4 -166 -850 -171 -856 -7 -6 -328 74 -445 111 -52
17 -157 53 -233 81 -108 39 -138 54 -134 66 4 16 329 801 331 801 1 0 37 -14
81 -31z m2877 -381 l166 -403 -41 -18 c-139 -61 -607 -201 -742 -223 l-40 -6
-84 427 c-46 234 -81 428 -78 431 3 3 43 14 89 25 129 29 313 83 428 127 58
22 112 40 121 41 11 1 60 -108 181 -401z m-2098 178 c55 -9 159 -21 230 -27
72 -6 134 -14 137 -18 9 -10 151 -828 147 -852 -3 -21 -7 -22 -118 -20 -191 3
-415 25 -624 62 -60 10 -110 19 -111 19 -1 0 37 194 84 431 l86 431 35 -5 c19
-3 80 -13 134 -21z m1236 22 c0 -2 38 -194 85 -428 57 -286 81 -426 74 -431
-35 -21 -423 -68 -619 -75 -85 -2 -170 -7 -187 -9 -31 -4 -33 -2 -33 28 0 39
140 840 149 849 3 3 69 11 146 18 77 7 187 20 245 30 106 18 140 22 140 18z"/>
<path d="M8625 11199 c-5 -14 -2 -25 6 -30 11 -7 9 -10 -8 -15 -13 -4 -23 -12
-23 -20 0 -23 43 0 64 35 20 35 20 36 -11 45 -16 5 -23 2 -28 -15z"/>
<path d="M2757 11122 c-10 -10 -17 -22 -17 -26 0 -4 25 -48 56 -98 30 -50 49
-86 42 -82 -7 4 -51 32 -97 61 l-85 53 -28 -26 -27 -27 24 -43 c14 -24 37 -65
51 -90 14 -25 24 -47 22 -49 -2 -3 -41 20 -86 51 -82 54 -83 54 -107 37 -13
-10 -24 -20 -25 -23 0 -3 62 -44 138 -92 l137 -88 24 24 24 24 -57 103 c-31
56 -55 103 -53 105 1 1 46 -25 100 -58 l99 -61 24 25 25 24 -78 137 c-43 75
-81 137 -84 137 -3 0 -13 -8 -22 -18z"/>
<path d="M10431 10843 c-112 -106 -112 -106 -92 -126 19 -20 20 -20 92 46 40
37 74 65 75 64 2 -1 -11 -51 -27 -110 -28 -101 -29 -110 -14 -133 8 -13 19
-24 23 -24 5 0 59 48 121 107 112 106 112 106 92 126 -20 20 -20 20 -92 -46
-41 -36 -74 -65 -75 -64 -1 1 11 53 28 115 29 108 30 113 13 132 -10 11 -21
20 -25 20 -4 0 -58 -48 -119 -107z"/>
<path d="M2425 10810 c-18 -20 -18 -22 56 -96 43 -45 66 -74 54 -71 -11 3 -65
18 -119 32 l-99 26 -23 -23 -23 -23 111 -114 110 -114 21 22 21 21 -67 68
c-37 37 -67 70 -67 74 0 3 50 -8 111 -24 l111 -30 23 22 24 23 -107 113 c-58
63 -109 114 -113 114 -3 0 -14 -9 -24 -20z"/>
<path d="M3162 10747 c-30 -32 -28 -71 4 -96 33 -26 58 -27 84 -1 41 41 12
120 -43 120 -13 0 -33 -10 -45 -23z m73 -47 c0 -30 -35 -40 -55 -15 -10 12
-10 18 0 30 20 25 55 15 55 -15z"/>
<path d="M10652 10614 l-112 -106 82 -89 82 -90 20 21 20 20 -62 63 -62 63 28
27 c15 15 31 27 34 27 4 0 30 -25 59 -55 l53 -56 20 21 20 20 -54 55 -54 55
25 26 26 25 57 -61 c55 -60 58 -62 76 -45 19 17 17 20 -57 101 -42 46 -79 84
-82 84 -3 0 -57 -48 -119 -106z"/>
<path d="M3021 10606 l-54 -55 43 -66 c48 -73 67 -79 89 -27 20 43 54 52 87
21 42 -40 23 -98 -29 -85 -31 7 -70 -30 -47 -44 23 -15 83 -12 108 6 62 43 65
122 6 173 -49 43 -107 39 -143 -11 -13 -19 -13 -19 -28 2 -15 21 -13 24 26 64
40 41 41 43 23 59 -10 9 -21 17 -23 17 -3 0 -29 -24 -58 -54z"/>
<path d="M10055 10493 c-60 -10 -96 -21 -110 -34 -19 -19 -19 -19 25 -64 l44
-45 -21 -22 c-21 -23 -21 -23 -2 -47 l20 -24 23 22 c15 15 26 19 31 12 8 -15
17 -14 40 3 17 12 18 16 5 31 -13 16 -7 24 60 85 65 59 73 70 61 84 -16 19
-52 19 -176 -1z m40 -73 l-39 -40 -23 22 c-13 12 -23 25 -23 29 0 4 26 11 58
17 31 5 59 10 62 11 2 0 -13 -17 -35 -39z"/>
<path d="M2849 10444 c-7 -9 -12 -31 -11 -48 2 -17 -1 -43 -7 -58 -8 -21 -6
-29 8 -42 25 -23 29 -20 37 19 3 19 10 35 14 35 5 0 39 -34 77 -75 38 -41 73
-75 78 -75 5 0 16 7 26 16 17 15 12 23 -89 130 -58 63 -109 114 -113 114 -4 0
-13 -7 -20 -16z"/>
<path d="M10237 10348 c-74 -48 -76 -66 -11 -93 41 -17 46 -50 11 -83 -41 -39
-96 -19 -84 30 4 14 0 29 -10 40 -22 24 -29 23 -42 -11 -10 -23 -9 -35 2 -64
29 -68 106 -91 165 -48 58 41 65 110 17 155 -24 22 -24 22 -3 35 18 11 25 8
62 -28 l42 -42 19 21 c18 20 18 21 -35 75 -30 30 -57 55 -61 55 -3 0 -35 -19
-72 -42z"/>
<path d="M2684 10276 c-40 -18 -64 -52 -64 -91 0 -46 13 -60 38 -44 15 9 21
22 19 42 -3 37 24 57 48 37 12 -10 15 -23 11 -44 -9 -47 5 -62 38 -41 24 16
28 16 51 1 46 -30 23 -95 -28 -82 -32 8 -70 -30 -47 -45 32 -20 63 -22 97 -3
58 30 77 88 48 143 -16 32 -33 41 -76 41 -25 0 -29 4 -29 28 0 51 -54 80 -106
58z"/>
<path d="M10411 10201 c-42 -42 -15 -111 44 -111 59 0 91 54 58 99 -26 34 -74
40 -102 12z m67 -23 c27 -27 -5 -73 -38 -53 -14 9 -12 52 3 58 19 8 22 8 35
-5z"/>
<path d="M1680 9250 c-6 -10 -10 -21 -10 -24 0 -3 28 -20 63 -38 l62 -33 -81
-3 c-76 -3 -82 -4 -93 -29 -6 -14 -10 -27 -9 -28 2 -1 30 -17 63 -36 l60 -34
-80 -3 c-73 -3 -94 -10 -95 -34 0 -5 51 -8 113 -8 112 0 114 0 125 25 13 27
12 28 -77 78 l-43 25 86 7 c71 6 88 11 97 27 6 11 8 22 5 25 -3 3 -44 27 -91
53 -79 45 -86 47 -95 30z"/>
<path d="M2059 9189 c-29 -29 -23 -73 12 -77 19 -2 33 4 48 24 25 32 26 38 5
58 -21 21 -40 20 -65 -5z m51 -23 c0 -22 -29 -41 -42 -28 -8 8 -8 15 2 27 16
19 40 20 40 1z"/>
<path d="M11553 9103 c-57 -31 -103 -60 -103 -64 0 -20 83 -159 95 -159 27 0
26 21 -6 76 l-32 57 24 18 c13 10 27 19 32 19 4 0 19 -25 34 -55 29 -59 30
-60 53 -45 13 8 11 17 -15 65 -29 54 -29 55 -10 70 11 8 23 15 26 15 3 0 16
-23 29 -50 28 -60 40 -72 60 -60 13 8 8 23 -26 87 -23 43 -46 78 -50 80 -5 1
-55 -23 -111 -54z"/>
<path d="M1986 9032 c-15 -30 -26 -56 -24 -57 2 -1 22 -12 46 -24 51 -26 69
-18 74 32 3 29 6 32 38 32 29 0 36 -4 38 -22 2 -17 -3 -26 -21 -32 -13 -5 -27
-17 -31 -26 -9 -23 -8 -25 10 -25 26 0 84 65 84 93 0 35 -46 70 -80 62 -30 -8
-70 -43 -70 -62 0 -7 -7 -13 -15 -13 -19 0 -19 11 -1 54 13 31 13 35 -3 39
-14 3 -25 -9 -45 -51z"/>
<path d="M11140 8946 c-61 -32 -84 -60 -84 -102 0 -72 85 -105 139 -54 33 31
34 82 3 104 l-22 15 25 9 c34 13 62 -3 55 -31 -3 -12 -1 -29 4 -36 7 -12 11
-12 24 -2 24 20 20 68 -9 96 -31 32 -75 32 -135 1z m24 -62 c25 -10 20 -53 -8
-66 -51 -23 -79 25 -34 56 26 19 22 18 42 10z"/>
<path d="M1536 8934 c-3 -9 -6 -17 -6 -19 0 -4 36 -14 105 -30 27 -6 21 -10
-62 -36 -69 -22 -93 -35 -98 -50 -4 -11 -5 -22 -3 -23 1 -1 47 -12 102 -25 82
-20 100 -21 107 -10 5 8 9 17 9 21 0 8 -66 28 -92 28 -44 0 -19 19 57 44 61
20 86 32 90 47 4 11 5 22 3 23 -4 3 -191 46 -199 46 -4 0 -10 -7 -13 -16z"/>
<path d="M11666 8894 c-55 -30 -102 -56 -104 -58 -2 -3 1 -13 7 -25 11 -19 13
-19 79 18 37 22 68 38 70 36 1 -1 -18 -38 -44 -83 -39 -69 -44 -84 -34 -102
13 -25 3 -28 129 40 100 55 109 63 92 88 -7 11 -24 5 -80 -27 -40 -23 -71 -37
-69 -33 2 4 22 42 46 85 42 75 49 117 19 117 -7 0 -57 -25 -111 -56z"/>
<path d="M2087 8851 c-6 -23 22 -38 35 -19 6 10 11 9 22 -5 10 -13 16 -15 22
-6 9 15 -30 49 -56 49 -10 0 -20 -9 -23 -19z"/>
<path d="M11317 8819 c-17 -10 -16 -13 8 -56 14 -25 25 -46 25 -47 0 0 -26 -1
-58 -1 -52 -1 -152 -21 -152 -32 0 -2 5 -13 10 -23 10 -18 12 -18 48 -3 22 10
70 17 122 19 47 1 89 2 93 3 8 1 -55 125 -71 143 -4 4 -15 2 -25 -3z"/>
<path d="M1888 8797 c-31 -29 -45 -82 -28 -102 28 -34 60 -2 37 36 -10 17 -9
22 8 35 28 20 37 14 65 -43 26 -54 48 -83 60 -83 6 0 70 132 70 145 0 3 -8 5
-18 5 -12 0 -25 -14 -37 -41 l-19 -41 -22 49 c-30 69 -70 82 -116 40z"/>
<path d="M1445 8729 c-8 -25 -13 -20 60 -57 l60 -31 -81 -1 c-77 0 -81 -1 -92
-25 -7 -14 -12 -28 -12 -30 0 -2 26 -18 58 -37 l57 -33 -77 -3 c-67 -2 -78 -5
-83 -23 -4 -11 -5 -22 -2 -25 2 -2 55 -1 117 3 102 7 114 10 120 29 7 18 -1
26 -58 60 l-67 39 86 3 c80 3 87 5 97 27 8 17 8 26 -1 33 -16 12 -163 92 -170
92 -3 0 -9 -9 -12 -21z"/>
<path d="M11790 8670 c-58 -32 -104 -63 -103 -67 1 -5 20 -44 43 -86 37 -69
44 -76 61 -66 19 10 19 12 -15 72 l-34 63 28 16 c33 19 36 17 69 -49 22 -45
27 -48 50 -34 11 7 8 19 -18 64 -31 54 -31 56 -12 66 31 17 34 14 65 -44 30
-58 33 -60 55 -46 10 7 4 25 -30 90 -24 44 -46 81 -49 80 -3 0 -52 -26 -110
-59z"/>
<path d="M1813 8622 c-35 -27 -47 -70 -28 -98 33 -51 135 -17 135 44 0 20 3
21 20 12 25 -13 26 -35 2 -52 -10 -7 -21 -21 -25 -30 -10 -29 21 -22 54 11 46
46 36 100 -22 120 -47 16 -111 13 -136 -7z m65 -31 c25 -16 9 -46 -26 -49 -39
-4 -56 23 -27 44 22 16 34 17 53 5z"/>
<path d="M11237 8539 c-9 -6 -15 -14 -12 -20 4 -5 -6 -9 -20 -9 -17 0 -25 -5
-22 -12 6 -17 66 -14 84 4 7 8 11 22 7 31 -7 20 -12 20 -37 6z"/>
<path d="M11423 8522 c-29 -9 -53 -22 -53 -29 0 -7 12 -23 26 -36 31 -29 26
-64 -12 -73 -41 -10 -57 2 -50 38 7 38 -10 64 -30 47 -21 -17 -17 -82 6 -107
38 -40 86 -41 128 -1 25 22 30 77 10 97 -10 10 -10 15 2 22 23 15 26 13 45
-30 20 -44 23 -46 47 -27 15 11 13 17 -14 65 -16 28 -35 52 -41 51 -7 0 -36
-8 -64 -17z"/>
<path d="M1751 8466 c-48 -27 -69 -106 -32 -125 24 -13 33 6 25 49 -5 23 -2
31 11 36 26 10 46 -6 64 -54 9 -23 26 -52 38 -63 l21 -22 34 74 c28 59 32 76
21 82 -19 11 -30 2 -43 -38 -15 -45 -24 -44 -38 4 -18 58 -58 81 -101 57z"/>
<path d="M11522 8368 c-19 -19 -14 -63 9 -84 19 -17 23 -17 47 -3 30 16 41 61
21 85 -14 17 -60 19 -77 2z m64 -29 c3 -6 -1 -18 -10 -27 -15 -15 -17 -15 -32
0 -19 19 -11 38 16 38 10 0 22 -5 26 -11z"/>
<path d="M12044 6847 c-35 -31 -37 -77 -4 -112 48 -51 130 -16 130 55 0 70
-72 103 -126 57z m74 -29 c17 -17 15 -43 -4 -59 -31 -26 -70 25 -44 56 15 18
32 19 48 3z"/>
<path d="M12380 6685 l0 -185 146 0 145 0 -3 31 -3 32 -102 -2 -103 -2 0 50 0
51 83 1 c45 1 85 1 90 0 4 0 7 15 7 35 l0 35 -89 -3 -89 -3 -4 38 c-2 21 -2
40 1 43 2 2 46 4 98 4 l93 0 0 30 0 30 -135 0 -135 0 0 -185z"/>
<path d="M11503 6846 c-60 -27 -84 -93 -59 -159 26 -68 94 -96 145 -61 23 17
23 17 16 -17 -4 -19 -11 -42 -17 -51 -12 -24 -54 -23 -70 1 -11 15 -21 18 -45
13 l-32 -7 15 -31 c40 -81 164 -70 205 19 21 47 25 149 9 208 -20 73 -101 114
-167 85z m77 -66 c29 -29 27 -85 -4 -105 -57 -38 -99 53 -53 113 14 18 34 15
57 -8z"/>
<path d="M11789 6845 c-38 -21 -59 -82 -59 -173 0 -102 27 -161 83 -179 56
-19 106 1 130 49 39 79 30 231 -17 284 -27 32 -97 42 -137 19z m91 -64 c5 -11
10 -62 10 -115 0 -73 -4 -98 -16 -110 -17 -18 -24 -19 -42 -8 -30 19 -42 141
-21 215 8 30 15 37 34 37 14 0 29 -8 35 -19z"/>
<path d="M1310 6827 c-48 -17 -72 -63 -78 -151 -8 -133 36 -216 116 -216 85 0
128 74 120 205 -9 135 -65 193 -158 162z m65 -67 c23 -25 28 -197 6 -223 -18
-22 -48 -22 -60 1 -21 40 -18 204 5 226 20 21 27 20 49 -4z"/>
<path d="M1542 6817 c-40 -43 -17 -125 36 -128 77 -5 120 48 88 110 -25 48
-88 57 -124 18z m83 -52 c0 -27 -3 -30 -30 -30 -21 0 -31 5 -33 18 -6 33 6 49
35 45 24 -3 28 -8 28 -33z"/>
<path d="M720 6812 c-34 -16 -75 -76 -64 -94 3 -4 19 -8 35 -8 22 0 32 6 39
24 19 52 90 40 90 -15 0 -23 -15 -46 -69 -103 -68 -72 -101 -121 -101 -151 0
-17 44 -19 173 -9 76 7 77 7 77 35 0 28 0 28 -72 31 l-73 3 56 60 c67 71 79
93 79 137 0 43 -24 76 -66 94 -44 18 -62 18 -104 -4z"/>
<path d="M1008 6823 c-68 -4 -68 -4 -68 -33 l0 -30 81 0 81 0 -18 -27 c-45
-68 -71 -143 -87 -245 -4 -26 -2 -28 28 -28 35 0 45 13 45 57 0 45 30 129 70
196 22 36 40 77 40 91 0 29 7 28 -172 19z"/>
<path d="M194 6793 c-23 -97 -54 -216 -57 -219 -2 -2 -16 50 -32 116 l-28 120
-38 0 c-36 0 -39 -2 -33 -22 3 -13 24 -95 47 -183 l42 -160 40 0 40 0 30 120
c17 66 33 126 36 134 3 8 15 -21 28 -65 12 -43 29 -103 38 -132 l15 -53 40 3
41 3 42 183 42 182 -39 0 c-21 0 -38 -2 -38 -4 0 -6 -39 -198 -46 -226 -7 -28
-10 -20 -54 148 l-22 82 -44 0 c-39 0 -44 -3 -50 -27z"/>
<path d="M1566 5144 c-37 -37 -1 -103 49 -90 14 4 31 17 37 31 23 52 -46 100
-86 59z m59 -39 c0 -30 -39 -27 -43 3 -3 20 0 23 20 20 15 -2 23 -10 23 -23z"/>
<path d="M1719 5061 c-32 -33 -36 -56 -14 -88 14 -20 14 -22 -6 -28 -11 -4
-21 -5 -23 -3 -1 1 -9 20 -19 41 -17 38 -23 42 -45 29 -10 -7 -7 -21 13 -65
27 -62 28 -62 97 -44 62 17 66 22 40 57 -36 48 -23 80 30 80 33 0 44 -19 29
-48 -7 -14 -7 -24 3 -37 12 -17 14 -17 29 6 20 28 21 52 5 82 -29 56 -93 64
-139 18z"/>
<path d="M11300 5030 c-10 -18 -7 -22 22 -34 18 -8 68 -30 112 -50 43 -20 82
-36 86 -36 13 0 21 32 11 44 -5 6 -12 27 -16 46 -12 57 -51 71 -42 15 3 -19 4
-35 3 -35 -2 0 -37 16 -79 35 -42 19 -78 35 -81 35 -3 0 -10 -9 -16 -20z"/>
<path d="M1273 4933 c-68 -14 -123 -28 -123 -32 0 -3 6 -14 13 -23 12 -16 19
-15 98 2 l84 19 -26 -22 c-14 -12 -44 -38 -68 -57 -41 -33 -42 -36 -30 -63 13
-30 4 -29 124 -8 27 5 51 8 53 6 2 -1 -26 -24 -62 -51 -37 -26 -66 -51 -66
-54 0 -3 6 -14 13 -24 12 -16 20 -11 102 54 117 93 110 85 97 114 l-11 24 -76
-15 c-42 -8 -83 -13 -90 -11 -8 2 17 29 55 61 65 54 69 59 58 82 -6 14 -14 25
-17 24 -3 -1 -61 -12 -128 -26z"/>
<path d="M1893 4918 c-25 -12 -27 -16 -14 -37 12 -19 52 -5 44 16 -5 13 0 14
28 8 30 -7 32 -6 20 9 -15 18 -45 20 -78 4z"/>
<path d="M11220 4850 c-10 -18 -6 -22 32 -39 24 -10 74 -33 111 -50 38 -17 72
-31 77 -31 16 0 19 30 5 57 -8 15 -15 38 -15 49 0 14 -8 24 -21 27 -19 5 -21
3 -16 -29 3 -19 4 -34 3 -34 -2 0 -37 16 -79 35 -42 19 -78 35 -81 35 -3 0
-10 -9 -16 -20z"/>
<path d="M11638 4698 c-34 -77 -36 -84 -20 -96 15 -12 20 -7 44 45 16 32 29
62 31 67 2 5 17 1 34 -8 l32 -16 -26 -56 c-21 -46 -23 -58 -12 -65 23 -14 26
-11 50 46 24 58 29 61 59 45 18 -10 18 -12 -5 -63 -29 -61 -30 -73 -9 -81 12
-4 24 14 54 77 21 45 35 85 32 88 -9 8 -211 99 -220 99 -4 0 -24 -37 -44 -82z"/>
<path d="M1955 4757 c-12 -7 -61 -12 -125 -12 -119 0 -114 6 -70 -91 26 -59
31 -64 49 -54 20 10 20 10 1 56 -11 25 -20 47 -20 48 0 2 22 1 48 -2 50 -4
162 14 162 27 0 4 -6 15 -12 24 -11 13 -17 14 -33 4z"/>
<path d="M11151 4696 c-18 -41 -30 -80 -26 -85 13 -22 31 -10 51 31 l21 42 19
-53 c19 -55 62 -101 93 -101 31 0 70 39 77 76 5 29 2 40 -17 60 l-23 25 -12
-23 c-9 -17 -9 -25 2 -36 18 -17 18 -27 -1 -42 -28 -23 -53 -2 -81 70 -15 38
-37 78 -49 90 l-21 20 -33 -74z"/>
<path d="M1440 4645 c-21 -22 -22 -30 -16 -89 7 -72 -3 -89 -35 -60 -21 19
-25 44 -8 61 15 15 -6 54 -25 47 -26 -10 -35 -57 -20 -100 25 -72 81 -95 123
-50 21 23 23 31 16 90 -6 56 -4 67 10 72 36 14 72 -55 44 -83 -12 -12 -3 -53
11 -53 17 0 50 44 50 67 0 32 -36 100 -59 113 -32 17 -66 11 -91 -15z"/>
<path d="M1957 4643 c-4 -3 -7 -14 -7 -23 0 -11 -24 -28 -70 -49 -71 -33 -75
-37 -62 -58 9 -14 187 -46 213 -38 23 8 23 15 4 62 -19 46 -19 50 4 58 13 4
17 12 14 26 -5 16 -11 19 -33 14 -16 -3 -31 -1 -35 4 -7 12 -19 14 -28 4z m32
-109 c11 -25 10 -26 -11 -20 -13 3 -33 6 -45 6 -31 0 -29 14 5 27 39 15 38 16
51 -13z"/>
<path d="M11040 4584 c0 -17 24 -46 50 -59 28 -14 30 -14 41 6 14 26 -4 42
-38 34 -16 -4 -23 -1 -23 10 0 8 -7 15 -15 15 -8 0 -15 -3 -15 -6z"/>
<path d="M11583 4544 c-23 -10 -55 -74 -55 -111 0 -46 29 -76 73 -76 27 0 41
9 75 48 29 32 48 46 58 42 9 -4 16 -12 16 -19 0 -21 -29 -58 -45 -58 -13 0
-35 -29 -35 -44 0 -3 14 -6 30 -6 69 0 118 112 70 160 -33 33 -68 26 -116 -26
-27 -28 -50 -44 -61 -42 -43 8 -14 88 32 88 14 0 25 4 25 9 0 5 3 16 6 25 5
13 -1 16 -27 15 -19 0 -39 -3 -46 -5z"/>
<path d="M2084 4466 c-3 -8 2 -29 11 -46 9 -18 15 -34 12 -36 -2 -2 -21 3 -42
11 -54 23 -109 23 -134 1 -46 -41 -8 -138 52 -138 16 0 30 2 33 4 10 11 -9 37
-28 40 -33 5 -46 34 -25 55 16 16 20 16 85 -5 72 -23 132 -29 132 -12 0 5 -14
39 -32 75 -31 63 -53 80 -64 51z"/>
<path d="M11045 4446 c-50 -50 -38 -111 28 -144 36 -18 94 6 103 42 5 21 9 24
25 16 17 -10 17 -11 -1 -52 -19 -42 -15 -57 16 -58 9 0 54 93 54 111 0 4 -24
22 -54 42 -58 39 -66 36 -70 -20 -2 -33 -19 -45 -50 -37 -51 13 -55 74 -5 74
11 0 19 4 19 9 0 5 3 16 6 25 10 26 -43 20 -71 -8z"/>
<path d="M1560 4424 c-36 -8 -88 -19 -117 -25 -49 -10 -52 -11 -42 -33 l11
-23 81 18 c45 10 83 16 85 15 1 -2 -22 -22 -52 -45 -75 -58 -80 -65 -65 -93 6
-13 13 -24 14 -25 1 -2 37 4 80 12 43 9 80 14 81 12 2 -2 -25 -26 -61 -52 -36
-27 -65 -52 -65 -55 0 -4 6 -14 13 -23 11 -15 22 -8 110 60 53 41 97 81 97 87
0 7 -6 20 -12 29 -12 15 -20 15 -91 1 -44 -8 -83 -14 -88 -12 -6 2 22 29 60
61 66 54 70 59 59 82 -13 28 -10 28 -98 9z"/>
<path d="M11460 4303 c-51 -113 -54 -124 -39 -134 18 -11 29 -11 29 0 0 5 12
34 26 65 l25 56 30 -15 c16 -9 29 -17 29 -19 0 -2 -11 -28 -24 -59 -22 -47
-23 -56 -10 -61 24 -9 24 -9 50 49 27 59 31 62 58 42 16 -12 15 -16 -9 -71
-21 -47 -23 -61 -13 -67 7 -5 16 -9 19 -9 11 0 81 162 72 170 -8 7 -211 100
-218 100 -2 0 -14 -21 -25 -47z"/>
<path d="M11102 4218 c-7 -7 -12 -24 -12 -38 0 -33 17 -50 50 -50 33 0 50 17
50 50 0 33 -17 50 -50 50 -14 0 -31 -5 -38 -12z m58 -24 c11 -12 10 -18 -3
-32 -16 -15 -18 -15 -34 0 -13 14 -14 20 -3 32 7 9 16 16 20 16 4 0 13 -7 20
-16z"/>
<path d="M2550 3340 c-36 -36 -19 -102 30 -111 30 -6 67 11 78 36 31 67 -56
127 -108 75z m80 -43 c0 -7 -5 -18 -12 -25 -18 -18 -36 -15 -48 7 -14 28 13
55 41 41 10 -6 19 -16 19 -23z"/>
<path d="M2823 3343 c-13 -2 -36 -18 -53 -34 -39 -39 -41 -94 -6 -136 24 -28
24 -30 6 -41 -17 -10 -25 -6 -59 31 -40 42 -40 42 -60 22 -20 -20 -19 -20 33
-79 l53 -59 71 43 c62 36 70 45 62 61 -6 10 -22 24 -37 31 -41 20 -50 41 -30
72 35 53 103 41 95 -16 -3 -19 2 -34 15 -45 18 -17 19 -17 33 2 24 32 17 72
-18 110 -33 35 -65 46 -105 38z"/>
<path d="M10326 3291 c-16 -18 -12 -23 97 -125 63 -58 119 -106 125 -106 15 0
23 29 26 96 2 50 -1 64 -16 73 -16 10 -20 7 -28 -14 -6 -15 -10 -33 -10 -42 0
-9 -34 17 -81 61 -44 42 -84 76 -88 76 -4 0 -16 -8 -25 -19z"/>
<path d="M3002 3178 c-19 -19 -15 -29 25 -70 l37 -38 -86 0 c-93 0 -129 -16
-149 -67 -11 -28 7 -78 38 -106 29 -25 83 -32 108 -14 19 15 19 16 2 35 -12
13 -26 18 -42 14 -26 -5 -55 12 -55 32 0 7 6 20 13 30 12 16 27 18 114 17 91
-2 153 10 153 28 0 10 -130 151 -139 151 -4 0 -12 -5 -19 -12z"/>
<path d="M10214 3160 c-35 -14 -64 -59 -64 -99 0 -63 49 -108 98 -90 20 8 22
5 22 -21 0 -32 39 -70 72 -70 31 0 73 27 86 55 27 59 3 125 -31 87 -9 -10 -14
-27 -11 -38 6 -24 -17 -47 -43 -42 -13 2 -18 13 -19 38 0 19 -4 43 -8 52 -8
17 -10 17 -33 -2 -27 -21 -47 -17 -73 15 -10 12 -10 21 -1 41 10 22 17 25 42
22 22 -4 34 1 45 16 13 19 12 22 -3 33 -19 15 -48 16 -79 3z"/>
<path d="M2290 2949 c-69 -37 -129 -70 -135 -73 -5 -2 0 -14 13 -27 l23 -24
37 21 c20 11 64 36 96 54 65 37 65 37 -11 -72 l-54 -77 22 -31 c13 -16 24 -30
26 -30 2 0 44 21 94 46 50 25 93 44 94 42 2 -2 -23 -41 -57 -86 l-60 -83 22
-24 23 -24 40 57 c21 31 64 92 93 134 l54 77 -23 27 -23 27 -107 -55 c-59 -30
-107 -53 -107 -51 0 2 29 47 65 100 l65 97 -22 23 c-12 13 -26 23 -32 22 -6 0
-67 -32 -136 -70z"/>
<path d="M3166 2991 c-17 -19 -16 -21 18 -59 20 -22 36 -42 36 -46 0 -3 -24
-3 -54 0 -108 13 -176 -23 -176 -93 0 -52 54 -103 108 -103 50 0 67 17 43 46
-13 16 -22 19 -34 12 -38 -21 -81 45 -44 69 6 4 65 10 129 13 64 3 122 10 127
15 7 7 -11 35 -56 85 -36 41 -69 76 -73 78 -3 1 -14 -6 -24 -17z"/>
<path d="M10045 2975 c-44 -23 -65 -53 -65 -92 0 -105 120 -162 180 -85 21 26
22 26 36 8 12 -17 10 -23 -22 -58 -36 -41 -39 -55 -13 -71 12 -8 27 2 65 43
27 29 48 58 48 65 -2 15 -84 125 -94 125 -12 0 -38 -34 -41 -54 -10 -49 -77
-42 -101 10 -16 35 0 59 40 59 21 0 37 7 47 22 14 20 13 22 -17 32 -37 13 -27
14 -63 -4z"/>
<path d="M10680 2839 c-83 -33 -125 -134 -80 -192 35 -44 71 -44 155 -1 85 44
109 39 81 -14 -17 -32 -40 -45 -66 -37 -10 3 -26 -5 -39 -19 -23 -24 -23 -24
-3 -35 44 -23 82 -13 128 33 37 37 44 50 44 83 0 84 -71 106 -169 51 -63 -35
-91 -33 -91 5 0 37 43 71 82 64 27 -4 36 0 51 19 18 24 18 24 -17 39 -40 17
-42 17 -76 4z"/>
<path d="M2635 2711 c-63 -27 -73 -86 -31 -169 30 -60 32 -80 9 -89 -23 -9
-76 52 -68 78 6 19 -18 59 -35 59 -15 0 -31 -57 -24 -84 4 -16 23 -46 44 -67
31 -33 43 -39 77 -39 81 0 104 66 56 164 -31 63 -26 86 16 86 40 0 66 -37 58
-84 -4 -26 -1 -39 14 -52 23 -20 35 -12 48 32 12 43 -4 85 -46 126 -40 39 -84
54 -118 39z"/>
<path d="M10022 2680 c-46 -19 -48 -95 -3 -119 31 -17 56 -13 79 12 30 32 28
71 -4 96 -29 23 -38 24 -72 11z m57 -48 c12 -22 -3 -42 -31 -42 -21 0 -33 22
-24 45 8 21 43 19 55 -3z"/>
<path d="M10421 2574 c-78 -83 -80 -88 -64 -106 16 -18 19 -17 80 44 l63 62
30 -29 30 -29 -55 -56 -56 -56 22 -20 21 -19 54 60 54 60 25 -25 25 -25 -56
-63 c-46 -52 -54 -65 -44 -77 7 -8 18 -15 24 -14 6 1 44 37 85 81 85 92 92 68
-60 209 l-97 89 -81 -86z"/>
<path d="M4264 2190 c-54 -22 -72 -100 -31 -138 13 -12 29 -22 35 -22 15 0 15
-13 1 -27 -9 -9 -21 -7 -50 8 -38 19 -38 19 -49 -2 -7 -11 -10 -22 -8 -23 23
-12 101 -46 107 -46 5 0 26 23 46 52 35 48 36 52 20 64 -10 8 -22 11 -27 8
-20 -13 -48 8 -48 35 0 53 64 79 72 29 2 -12 13 -25 26 -29 19 -7 22 -5 22 20
0 50 -68 91 -116 71z"/>
<path d="M4451 2141 c-26 -36 -26 -47 -2 -60 15 -8 20 -6 29 14 7 15 8 25 2
25 -18 0 -10 22 10 27 26 7 26 23 1 23 -11 0 -29 -13 -40 -29z"/>
<path d="M4056 2104 c-41 -40 7 -109 59 -86 14 6 27 23 31 37 13 50 -53 86
-90 49z m59 -39 c0 -30 -39 -27 -43 3 -3 20 0 23 20 20 15 -2 23 -10 23 -23z"/>
<path d="M8771 2111 c-11 -7 -3 -30 40 -120 30 -60 59 -110 65 -111 16 0 34
22 34 45 0 11 7 28 14 38 13 17 11 57 -3 57 -4 0 -14 -11 -21 -25 -7 -14 -16
-25 -19 -25 -4 0 -23 34 -44 75 -38 77 -42 81 -66 66z"/>
<path d="M4520 2079 c-7 -11 -10 -22 -8 -23 2 -1 21 -10 43 -20 l40 -18 -62
-28 c-33 -15 -66 -37 -72 -48 -30 -56 9 -114 75 -114 47 0 75 29 47 49 -11 9
-20 10 -27 3 -14 -14 -42 -12 -54 3 -19 22 12 52 77 77 32 12 69 33 82 46 l22
24 -39 16 c-21 9 -56 25 -76 35 -37 19 -37 19 -48 -2z"/>
<path d="M8615 2038 c-52 -28 -63 -101 -20 -143 28 -29 76 -33 95 -10 11 13
15 13 21 3 16 -24 9 -35 -31 -53 -43 -19 -45 -22 -30 -45 8 -12 17 -11 65 13
30 15 55 32 55 38 0 24 -32 119 -40 119 -5 0 -22 -12 -39 -26 -25 -21 -34 -23
-50 -14 -30 15 -39 60 -16 76 13 9 23 10 36 3 13 -7 26 -6 41 2 l22 12 -23 18
c-26 21 -56 24 -86 7z"/>
<path d="M4714 1981 c-19 -12 -39 -38 -53 -71 -44 -101 -23 -164 53 -158 34 3
44 9 68 43 39 57 56 127 39 159 -10 19 -56 47 -75 46 -1 0 -15 -9 -32 -19z
m66 -53 c0 -33 -46 -127 -65 -134 -31 -12 -38 11 -21 63 21 63 42 93 67 93 13
0 19 -7 19 -22z"/>
<path d="M8453 1954 c-9 -4 -8 -16 3 -47 10 -27 14 -71 13 -124 -2 -45 0 -86
4 -90 8 -7 147 57 147 68 0 4 -3 14 -6 23 -5 13 -13 12 -55 -9 l-49 -25 0 67
c0 111 -17 153 -57 137z"/>
<path d="M4880 1920 c-14 -26 -15 -25 30 -40 22 -7 40 -16 40 -20 0 -3 -25
-17 -56 -29 -61 -26 -87 -56 -82 -97 6 -55 98 -88 137 -50 14 15 14 17 -1 32
-13 13 -19 14 -35 3 -26 -16 -53 -5 -53 20 0 23 25 41 92 66 25 9 56 28 68 40
25 27 28 24 -73 68 -55 25 -57 25 -67 7z"/>
<path d="M8287 1923 c-17 -16 5 -93 27 -93 27 1 38 17 27 39 -6 11 -17 20 -24
18 -7 -1 -11 7 -10 21 3 21 -7 29 -20 15z"/>
<path d="M8173 1815 c-56 -24 -61 -114 -10 -150 26 -18 69 -19 85 -3 10 10 15
10 22 -2 15 -23 13 -26 -30 -45 -43 -19 -45 -22 -31 -45 8 -12 17 -10 61 10
28 13 54 28 56 32 7 11 -27 128 -37 128 -4 0 -22 -12 -39 -27 -37 -31 -58 -24
-75 22 -8 22 -6 29 9 41 13 9 24 10 37 4 21 -12 49 -3 49 14 0 12 -41 37 -58
36 -4 -1 -21 -7 -39 -15z"/>
<path d="M4011 1707 c-70 -90 -78 -103 -63 -114 9 -7 19 -13 23 -13 5 0 29 30
55 67 27 36 49 62 51 57 2 -6 -3 -43 -10 -82 l-14 -73 28 -14 c27 -15 28 -14
79 51 29 36 54 64 55 62 2 -2 -4 -38 -12 -81 -14 -68 -14 -80 -2 -88 8 -5 19
-9 25 -9 9 0 60 248 52 255 -2 2 -14 6 -28 10 -22 5 -32 -3 -80 -64 -29 -39
-56 -69 -58 -67 -3 3 12 106 23 162 3 15 -2 24 -20 32 -23 11 -28 6 -104 -91z"/>
<path d="M6152 1666 c-6 -14 -29 -35 -51 -48 -35 -20 -41 -28 -41 -56 l0 -34
45 25 45 26 0 -130 0 -129 35 0 35 0 0 185 0 185 -28 0 c-21 0 -32 -7 -40 -24z"/>
<path d="M6393 1676 c-54 -25 -71 -92 -34 -137 19 -23 19 -24 -5 -52 -35 -41
-33 -97 5 -139 27 -30 34 -33 90 -33 52 0 64 4 87 26 18 18 28 41 31 72 5 41
2 49 -24 75 l-29 30 23 26 c30 36 29 69 -4 106 -33 37 -91 48 -140 26z m85
-58 c19 -19 14 -56 -8 -68 -43 -23 -83 17 -60 60 12 22 49 27 68 8z m14 -163
c17 -38 0 -79 -35 -83 -37 -5 -57 14 -57 52 0 39 15 56 52 56 21 0 32 -7 40
-25z"/>
<path d="M6691 1678 c-52 -28 -66 -62 -69 -168 -3 -77 0 -106 13 -135 41 -86
158 -86 199 0 12 24 17 62 17 119 1 123 -31 181 -102 192 -19 2 -45 -1 -58 -8z
m73 -70 c18 -26 22 -170 6 -212 -12 -33 -44 -34 -66 -1 -20 31 -17 192 5 218
19 23 37 21 55 -5z"/>
<path d="M6938 1676 c-26 -19 -39 -62 -28 -90 11 -30 47 -56 78 -56 35 0 72
43 72 83 0 61 -74 100 -122 63z m72 -41 c26 -31 -13 -82 -44 -56 -19 16 -21
57 -3 64 22 9 34 7 47 -8z"/>
<path d="M4363 1660 c-27 -11 -43 -40 -43 -76 0 -19 13 -38 45 -67 44 -40 54
-60 36 -71 -18 -11 -60 13 -67 38 -7 28 -42 42 -51 20 -15 -39 53 -104 107
-104 40 0 70 27 70 63 0 24 -11 42 -46 78 -49 50 -54 79 -12 79 31 -1 55 -21
60 -49 1 -14 13 -27 26 -32 20 -8 22 -6 22 30 0 43 -16 62 -73 86 -41 17 -44
17 -74 5z"/>
<path d="M8845 1654 c-77 -26 -102 -102 -48 -144 23 -18 35 -20 73 -14 67 11
83 10 87 -2 8 -24 -29 -46 -66 -40 -20 3 -43 1 -51 -5 -13 -8 -12 -12 9 -29
28 -24 52 -25 97 -4 40 19 50 31 59 66 5 21 1 33 -19 53 -24 24 -29 25 -96 19
-67 -7 -70 -6 -70 14 0 12 11 29 25 38 21 14 30 15 52 5 42 -19 81 2 50 27
-29 25 -63 30 -102 16z"/>
<path d="M8077 1592 c-24 -27 -21 -59 8 -78 33 -21 72 -6 81 31 13 52 -53 86
-89 47z m61 -35 c4 -20 -25 -34 -40 -19 -15 15 -1 44 19 40 10 -2 19 -11 21
-21z"/>
<path d="M4569 1560 c-9 -5 -22 -23 -29 -39 -15 -37 -3 -62 51 -109 43 -37 50
-62 18 -62 -31 0 -59 19 -59 39 0 17 -18 31 -41 31 -22 0 -7 -53 22 -81 59
-55 149 -36 149 31 0 20 -14 41 -46 73 -51 48 -54 77 -10 77 29 0 56 -24 56
-50 0 -16 18 -30 41 -30 19 0 9 66 -13 88 -41 38 -104 52 -139 32z"/>
<path d="M8624 1546 c-45 -20 -77 -64 -69 -96 13 -52 33 -62 114 -58 82 3 100
-9 56 -38 -22 -14 -31 -15 -46 -6 -20 13 -59 1 -59 -17 0 -16 29 -32 57 -33
86 -3 147 88 93 137 -16 15 -30 17 -88 11 -58 -6 -70 -4 -76 9 -13 35 63 72
91 44 8 -8 17 -7 34 1 l23 13 -28 23 c-31 27 -57 29 -102 10z"/>
<path d="M8398 1429 c-79 -40 -84 -44 -70 -66 6 -10 23 -5 68 17 32 16 62 30
65 30 9 0 30 -50 25 -59 -3 -4 -27 -18 -55 -31 -54 -25 -56 -27 -42 -49 7 -11
18 -9 62 13 29 14 56 26 59 26 4 0 12 -11 18 -24 10 -22 7 -25 -49 -51 -57
-28 -74 -50 -45 -61 10 -4 145 54 164 71 6 5 -108 225 -116 225 -4 -1 -42 -19
-84 -41z"/>
<path d="M6507 1040 c-74 -14 -113 -80 -82 -139 18 -35 46 -52 127 -75 66 -19
85 -42 62 -74 -12 -17 -25 -22 -58 -22 -43 0 -66 15 -78 51 -4 11 -16 14 -42
11 -41 -5 -43 -10 -20 -58 52 -108 262 -89 280 26 12 73 -28 115 -131 140 -30
7 -62 21 -70 30 -15 16 -14 19 1 34 25 26 96 18 109 -11 8 -18 18 -23 48 -23
38 0 39 1 33 28 -9 35 -60 82 -90 82 -14 0 -30 2 -38 4 -7 2 -30 0 -51 -4z"/>
<path d="M10425 260 c-11 -4 -33 -22 -50 -40 -26 -27 -30 -39 -30 -85 0 -50 3
-58 38 -92 34 -34 42 -38 90 -38 60 0 98 22 122 72 52 108 -60 229 -170 183z
m104 -34 c91 -48 51 -196 -53 -196 -60 0 -106 47 -106 107 1 80 85 127 159 89z"/>
<path d="M10418 188 c-26 -26 -9 -37 29 -17 33 17 58 1 58 -37 0 -23 -5 -30
-24 -32 -13 -2 -28 1 -34 7 -6 6 -19 11 -29 11 -16 0 -17 -3 -8 -20 25 -47
106 -43 129 6 16 35 14 47 -10 78 -26 34 -79 36 -111 4z"/>
<path d="M10762 218 c-12 -12 -17 -38 -7 -38 3 0 14 9 25 20 11 11 26 17 35
14 27 -11 16 -49 -25 -88 -55 -51 -53 -66 9 -66 28 0 53 5 56 10 4 6 -10 10
-34 10 -23 0 -41 3 -41 7 0 4 16 21 35 39 53 48 45 104 -15 104 -14 0 -31 -5
-38 -12z"/>
<path d="M10897 212 c-23 -26 -22 -103 1 -132 25 -30 68 -21 83 18 12 32 6 96
-11 117 -17 21 -54 19 -73 -3z m73 -57 c0 -40 -18 -75 -39 -75 -10 0 -22 7
-25 16 -12 31 -6 93 11 109 16 16 18 16 35 -5 10 -12 18 -33 18 -45z"/>
<path d="M11046 206 c-16 -14 -24 -26 -18 -30 6 -3 13 -2 17 4 16 25 25 5 25
-55 0 -37 4 -65 10 -65 6 0 10 35 10 85 0 47 -3 85 -7 85 -5 -1 -21 -11 -37
-24z"/>
<path d="M11183 211 c-13 -11 -23 -25 -23 -32 0 -10 3 -10 12 -1 22 22 28 12
28 -53 0 -37 4 -65 10 -65 6 0 10 35 10 85 0 47 -3 85 -7 85 -5 -1 -18 -9 -30
-19z"/>
<path d="M11410 166 c0 -46 -4 -67 -16 -77 -14 -11 -18 -10 -30 6 -17 23 -33
11 -18 -13 15 -23 48 -27 68 -7 18 19 24 155 6 155 -6 0 -10 -28 -10 -64z"/>
<path d="M11792 148 c3 -84 20 -112 26 -43 3 34 4 35 48 35 l46 0 -4 -37 c-2
-22 2 -38 10 -41 9 -3 12 18 12 82 0 63 -3 86 -13 86 -7 0 -12 -13 -12 -32 0
-32 -2 -33 -42 -36 l-43 -3 0 35 c0 26 -4 36 -15 36 -13 0 -15 -14 -13 -82z"/>
<path d="M12090 151 c0 -44 5 -83 10 -86 6 -4 10 25 10 79 0 51 -4 86 -10 86
-6 0 -10 -33 -10 -79z"/>
<path d="M12280 148 l0 -83 32 -2 c42 -3 68 21 68 63 0 41 -25 67 -56 60 -21
-6 -24 -3 -24 19 0 14 -4 25 -10 25 -6 0 -10 -34 -10 -82z m75 -23 c0 -36 -2
-40 -25 -40 -20 0 -26 6 -28 28 -5 42 5 59 30 55 20 -3 23 -9 23 -43z"/>
<path d="M12755 210 c-3 -5 -3 -10 2 -10 4 0 1 -5 -7 -11 -11 -8 -12 -12 -2
-16 7 -3 12 -24 12 -54 0 -36 4 -51 15 -56 9 -3 19 -2 23 2 4 4 1 10 -5 12
-15 5 -18 93 -4 93 5 0 4 11 -2 25 -13 27 -22 31 -32 15z"/>
<path d="M11474 176 c-24 -18 -13 -31 14 -15 20 13 52 7 52 -10 0 -5 -17 -13
-37 -18 -31 -7 -39 -14 -41 -36 -4 -29 -3 -29 63 -32 l40 -1 -4 50 c-1 28 -8
57 -13 64 -14 16 -50 15 -74 -2z m64 -73 c-4 -23 -58 -31 -58 -9 0 15 14 24
43 25 12 1 17 -5 15 -16z"/>
<path d="M11597 184 c-11 -11 -8 -112 3 -119 6 -4 10 9 10 32 0 47 20 79 44
70 12 -5 16 -19 16 -57 0 -28 5 -50 10 -50 7 0 10 22 8 56 -3 65 -23 88 -57
67 -13 -8 -21 -9 -23 -2 -2 6 -7 7 -11 3z"/>
<path d="M11977 172 c-21 -23 -22 -76 -1 -96 21 -22 57 -20 79 4 20 22 6 27
-24 8 -22 -14 -51 -4 -51 17 0 11 11 15 45 15 51 0 59 16 25 50 -25 25 -52 26
-73 2z m63 -17 c11 -13 7 -15 -24 -15 -34 0 -44 8 -29 23 11 12 40 8 53 -8z"/>
<path d="M12160 170 c-56 -56 12 -142 76 -96 25 19 12 31 -15 14 -15 -9 -26
-10 -38 -2 -34 21 -26 34 21 34 38 0 46 3 46 18 0 23 -30 52 -53 52 -9 0 -26
-9 -37 -20z m68 -17 c2 -9 -8 -13 -33 -13 -33 0 -36 2 -25 15 15 18 51 16 58
-2z"/>
<path d="M12410 123 c0 -36 4 -63 10 -63 6 0 10 20 10 44 0 41 19 74 33 59 4
-3 7 1 7 10 0 12 -8 16 -30 14 -30 -2 -30 -2 -30 -64z"/>
<path d="M12504 176 c-10 -8 -15 -18 -11 -22 4 -5 12 -3 16 5 10 15 53 11 58
-5 2 -7 -13 -16 -33 -21 -20 -4 -42 -16 -47 -25 -22 -34 41 -66 71 -36 9 9 12
9 12 0 0 -7 5 -12 10 -12 6 0 10 25 10 55 0 43 -4 56 -19 65 -27 14 -44 13
-67 -4z m64 -68 c-7 -19 -34 -32 -53 -24 -14 5 -15 9 -5 21 15 18 63 20 58 3z"/>
<path d="M12620 125 c0 -37 4 -65 10 -65 6 0 10 20 10 44 0 46 19 72 45 62 11
-4 15 -20 15 -56 0 -28 5 -50 10 -50 7 0 10 22 8 56 -3 66 -23 88 -58 66 -12
-7 -20 -8 -20 -2 0 5 -4 10 -10 10 -6 0 -10 -28 -10 -65z"/>
</g>
</svg>
